<?xml version="1.0" encoding="UTF-8" standalone="no"?>
<!-- Created with Inkscape (http://www.inkscape.org/) -->

<svg
   xmlns:dc="http://purl.org/dc/elements/1.1/"
   xmlns:cc="http://creativecommons.org/ns#"
   xmlns:rdf="http://www.w3.org/1999/02/22-rdf-syntax-ns#"
   xmlns:svg="http://www.w3.org/2000/svg"
   xmlns="http://www.w3.org/2000/svg"
   xmlns:sodipodi="http://sodipodi.sourceforge.net/DTD/sodipodi-0.dtd"
   xmlns:inkscape="http://www.inkscape.org/namespaces/inkscape"
   width="210mm"
   height="297mm"
   viewBox="0 0 210 297"
   version="1.1"
   id="svg8"
   inkscape:version="0.92.4 (f8dce91, 2019-08-02)"
   sodipodi:docname="title_vector.svg">
  <defs
     id="defs2" />
  <sodipodi:namedview
     id="base"
     pagecolor="#ffffff"
     bordercolor="#666666"
     borderopacity="1.0"
     inkscape:pageopacity="0.0"
     inkscape:pageshadow="2"
     inkscape:zoom="0.98994949"
     inkscape:cx="229.56329"
     inkscape:cy="870.40945"
     inkscape:document-units="mm"
     inkscape:current-layer="layer1"
     showgrid="false"
     inkscape:window-width="1870"
     inkscape:window-height="1025"
     inkscape:window-x="1970"
     inkscape:window-y="27"
     inkscape:window-maximized="1" />
  <metadata
     id="metadata5">
    <rdf:RDF>
      <cc:Work
         rdf:about="">
        <dc:format>image/svg+xml</dc:format>
        <dc:type
           rdf:resource="http://purl.org/dc/dcmitype/StillImage" />
        <dc:title></dc:title>
      </cc:Work>
    </rdf:RDF>
  </metadata>
  <g
     inkscape:label="Layer 1"
     inkscape:groupmode="layer"
     id="layer1">
    <g
       id="g3737"
       transform="matrix(0.03527778,0,0,-0.03527778,11.425367,98.146922)"
       style="fill:#d40000;fill-opacity:1;stroke:none"
       inkscape:export-xdpi="96"
       inkscape:export-ydpi="96">
      <path
         id="path3713"
         d="m 465,1059 c -27,-4 -73,-11 -102,-15 -31,-4 -59,-14 -69,-25 -11,-12 -31,-19 -56,-19 -45,0 -67,-19 -103,-89 -24,-49 -35,-131 -16,-131 4,0 11,-24 14,-52 3,-29 12,-71 21,-93 16,-41 17,-41 71,-42 36,-1 64,-8 82,-21 16,-10 36,-22 46,-25 20,-7 51,-72 42,-87 -15,-25 -146,-4 -181,28 -10,10 -38,28 -62,40 l -43,22 7,-22 c 3,-13 13,-35 20,-50 8,-15 13,-47 13,-70 -3,-68 15,-209 29,-232 3,-5 13,15 22,45 l 17,54 1,-49 c 1,-26 5,-53 11,-60 5,-6 12,-26 16,-44 4,-18 8,-32 10,-30 2,2 9,35 15,73 6,39 15,74 21,80 6,5 9,5 9,-3 0,-24 17,-11 28,21 l 10,32 2,-27 c 1,-16 4,-32 5,-38 1,-5 3,-16 4,-22 1,-10 3,-10 10,0 5,9 11,-4 15,-38 8,-59 19,-58 34,2 6,24 21,54 33,66 20,22 22,22 34,6 12,-17 13,-16 19,4 11,32 21,27 36,-19 l 14,-41 13,44 c 7,23 13,67 13,96 0,28 5,52 10,52 6,0 11,-6 11,-12 3,-31 18,73 18,128 1,55 -2,63 -31,91 -59,57 -182,143 -219,153 -83,23 -103,66 -56,118 28,30 39,28 62,-14 15,-28 21,-33 30,-22 13,18 45,11 45,-10 1,-9 6,-27 13,-40 l 13,-23 14,28 13,28 8,-49 c 9,-57 34,-90 49,-66 11,18 14,56 14,242 l 1,138 -25,-1 c -14,-1 -47,-5 -75,-10 z"
         inkscape:connector-curvature="0"
         style="fill:#d40000;fill-opacity:1" />
      <path
         id="path3715"
         d="m 659,1038 -46,-10 4,-91 c 2,-51 9,-141 16,-202 6,-60 12,-196 13,-301 2,-210 13,-268 34,-170 6,32 13,56 16,54 2,-2 8,-38 14,-79 15,-107 23,-124 31,-69 4,25 11,61 16,80 l 9,35 7,-55 c 4,-30 7,-76 7,-102 0,-54 15,-72 25,-28 11,52 14,661 3,725 -9,54 -8,69 15,143 l 25,82 -71,-1 c -40,-1 -93,-6 -118,-11 z m 8,-220 c -2,-13 -4,-5 -4,17 -1,22 1,32 4,23 2,-10 2,-28 0,-40 z"
         inkscape:connector-curvature="0"
         style="fill:#d40000;fill-opacity:1" />
      <path
         id="path3717"
         d="m 3789,1038 -46,-10 4,-91 c 2,-51 9,-141 16,-202 6,-60 12,-196 13,-301 2,-210 13,-268 34,-170 6,32 13,56 16,54 2,-2 8,-38 14,-79 15,-107 23,-124 31,-69 4,25 11,61 16,80 l 9,35 7,-55 c 4,-30 7,-76 7,-102 0,-54 15,-72 25,-28 11,52 14,661 3,725 -9,54 -8,69 15,143 l 25,82 -71,-1 c -40,-1 -93,-6 -118,-11 z m 8,-220 c -2,-13 -4,-5 -4,17 -1,22 1,32 4,23 2,-10 2,-28 0,-40 z"
         inkscape:connector-curvature="0"
         style="fill:#d40000;fill-opacity:1" />
      <path
         id="path3719"
         d="m 4049,1038 -46,-10 4,-91 c 2,-51 9,-141 16,-202 6,-60 12,-196 13,-301 2,-210 13,-268 34,-170 6,32 13,56 16,54 2,-2 8,-38 14,-79 15,-107 23,-124 31,-69 4,25 11,61 16,80 l 9,35 7,-55 c 4,-30 7,-76 7,-102 0,-54 15,-72 25,-28 11,52 14,661 3,725 -9,54 -8,69 15,143 l 25,82 -71,-1 c -40,-1 -93,-6 -118,-11 z m 8,-220 c -2,-13 -4,-5 -4,17 -1,22 1,32 4,23 2,-10 2,-28 0,-40 z"
         inkscape:connector-curvature="0"
         style="fill:#d40000;fill-opacity:1" />
      <path
         id="path3721"
         d="m 1880,999 c -20,-11 -55,-19 -83,-19 -59,0 -65,-13 -37,-74 18,-39 22,-73 27,-224 4,-116 2,-203 -6,-252 -8,-51 -9,-76 -1,-78 6,-2 10,-47 11,-115 1,-88 3,-105 10,-77 33,126 41,130 54,26 4,-33 10,-68 14,-80 7,-19 8,-19 14,5 3,13 9,50 12,82 7,50 9,55 20,40 12,-17 14,-16 21,11 4,16 4,82 1,147 -4,65 -4,125 -1,133 8,22 37,20 65,-3 22,-18 24,-27 25,-113 1,-51 6,-111 12,-133 5,-22 13,-53 17,-70 l 7,-30 12,24 c 10,17 15,20 21,11 7,-11 9,-23 14,-68 0,-7 5,-11 10,-8 9,6 21,71 27,146 2,25 15,93 30,152 l 26,107 -32,46 c -18,26 -48,56 -66,67 -19,11 -34,23 -34,26 0,4 -7,15 -14,25 -13,17 -16,17 -52,-2 -21,-12 -44,-21 -50,-21 -7,0 -15,-8 -19,-17 -6,-17 -7,-17 -17,0 -5,10 -7,24 -5,32 3,7 1,44 -5,82 -8,56 -7,76 7,113 9,25 18,55 20,67 2,11 6,30 10,42 8,27 -15,27 -65,0 z"
         inkscape:connector-curvature="0"
         style="fill:#d40000;fill-opacity:1" />
      <path
         id="path3723"
         d="m 3589,897 c -19,-12 -41,-37 -49,-55 -9,-20 -24,-34 -40,-38 -14,-3 -44,-10 -67,-16 -23,-6 -51,-8 -62,-5 -23,6 -23,6 -42,-166 -7,-59 -16,-110 -20,-113 -4,-2 -11,12 -16,33 -4,21 -8,40 -8,43 -11,44 -15,65 -20,121 -7,75 6,70 -125,48 -41,-7 -76,-13 -78,-15 -2,-1 8,-20 22,-43 14,-22 39,-79 56,-127 17,-49 37,-98 45,-110 14,-22 50,-149 67,-243 10,-49 12,-52 22,-33 11,20 13,19 25,-26 8,-26 17,-51 20,-57 9,-16 19,43 20,123 1,72 12,92 26,50 6,-18 9,-10 15,34 4,32 12,70 18,85 6,15 20,75 32,133 21,103 52,196 85,259 l 16,32 39,-31 c 21,-17 40,-40 42,-51 3,-19 7,-17 46,17 59,50 67,75 43,130 -17,37 -24,44 -49,44 -16,0 -44,-10 -63,-23 z"
         inkscape:connector-curvature="0"
         style="fill:#d40000;fill-opacity:1" />
      <path
         id="path3725"
         d="m 1700,824 c -19,-7 -50,-13 -68,-13 -64,-2 -154,-35 -189,-69 -49,-49 -93,-112 -93,-134 0,-32 38,-96 75,-124 32,-24 41,-26 90,-20 48,5 55,4 65,-15 13,-23 6,-69 -10,-69 -27,0 -139,54 -186,90 l -54,41 v -33 c 0,-35 15,-103 49,-231 30,-114 34,-118 58,-55 21,52 21,53 28,23 3,-16 13,-46 22,-65 l 15,-35 13,38 c 17,50 21,53 42,32 17,-17 18,-17 24,14 9,43 16,49 64,53 33,2 44,9 67,43 23,33 28,48 24,85 -7,82 -26,145 -54,185 l -28,40 -62,-3 c -68,-4 -84,9 -64,51 5,12 13,30 16,40 8,26 28,17 47,-21 14,-28 18,-30 29,-17 18,21 27,19 34,-10 4,-14 13,-25 21,-25 8,0 15,-5 15,-11 0,-5 4,-8 9,-4 5,3 12,36 16,73 3,37 10,87 16,111 5,24 9,45 7,46 -2,1 -19,-3 -38,-11 z"
         inkscape:connector-curvature="0"
         style="fill:#d40000;fill-opacity:1" />
      <path
         id="path3727"
         d="M 1025,780 C 991,767 925,688 913,645 878,519 873,469 891,423 c 12,-30 14,-28 34,32 6,19 8,18 21,-7 19,-36 44,-37 44,-2 0,17 4,24 13,21 9,-3 13,9 15,45 2,58 23,106 60,143 26,27 26,27 43,6 23,-28 56,-154 42,-158 -30,-10 -221,-129 -240,-150 -27,-29 -28,-34 -7,-76 15,-30 112,-137 124,-137 7,0 38,23 87,64 31,27 36,28 45,13 5,-9 16,-17 23,-17 11,0 15,-11 15,-37 0,-45 9,-83 20,-83 4,0 12,24 17,52 8,43 11,47 12,21 1,-38 21,-45 21,-9 0,14 5,28 10,31 6,3 8,16 6,28 -1,12 -1,16 1,9 11,-30 20,-7 22,54 1,40 -3,71 -10,81 -7,8 -16,49 -20,91 -9,98 -17,140 -35,174 -8,14 -15,54 -16,87 l -3,61 h -33 c -18,0 -43,6 -55,14 -24,15 -89,18 -122,6 z m 106,-369 c 13,-10 32,-32 41,-48 16,-27 16,-32 1,-52 -20,-29 -72,-51 -121,-51 -42,0 -62,14 -62,43 0,17 95,127 110,127 4,0 18,-9 31,-19 z"
         inkscape:connector-curvature="0"
         style="fill:#d40000;fill-opacity:1" />
      <path
         id="path3729"
         d="m 2826,759 c -21,-12 -68,-25 -104,-30 -36,-5 -68,-11 -70,-13 -2,-3 3,-15 12,-28 8,-12 26,-63 40,-113 20,-72 25,-116 26,-220 1,-71 4,-138 7,-148 4,-15 6,-15 19,-2 21,21 32,12 27,-22 -3,-15 5,-48 16,-73 l 20,-45 1,50 c 2,28 5,64 9,80 l 7,30 8,-32 c 9,-40 23,-42 32,-5 3,15 10,45 16,66 6,24 7,89 3,161 l -7,122 35,21 c 46,29 64,28 86,-8 l 18,-31 7,62 c 13,127 10,145 -29,169 -39,24 -63,18 -103,-28 l -22,-27 5,43 c 6,49 -1,51 -59,21 z"
         inkscape:connector-curvature="0"
         style="fill:#d40000;fill-opacity:1" />
      <path
         id="path3731"
         d="m 2371,744 c -52,-22 -116,-79 -135,-118 -12,-25 -16,-64 -16,-153 0,-110 2,-121 25,-155 39,-58 109,-101 162,-100 38,0 45,-3 59,-29 8,-16 19,-27 24,-24 5,3 12,-6 16,-20 9,-36 20,-23 22,27 2,53 11,80 23,73 5,-4 9,-17 9,-29 0,-34 27,-95 34,-76 31,91 50,196 48,258 l -2,32 h -85 -85 v -29 c 0,-38 -40,-67 -69,-49 -18,11 -57,67 -49,72 1,1 33,17 70,35 64,32 72,34 139,27 l 71,-6 -7,42 c -8,48 -60,175 -82,199 -14,17 -85,39 -120,39 -10,-1 -33,-7 -52,-16 z m 77,-92 c 15,-12 25,-33 29,-59 l 5,-40 -61,-15 c -33,-9 -61,-13 -61,-11 0,13 43,73 51,73 6,0 3,10 -5,22 -11,16 -13,25 -4,35 14,17 18,16 46,-5 z"
         inkscape:connector-curvature="0"
         style="fill:#d40000;fill-opacity:1" />
      <path
         id="path3733"
         d="m 4421,744 c -52,-22 -116,-79 -135,-118 -12,-25 -16,-64 -16,-153 0,-110 2,-121 25,-155 39,-58 109,-101 162,-100 38,0 45,-3 59,-29 8,-16 19,-27 24,-24 5,3 12,-6 16,-20 9,-36 20,-23 22,27 2,53 11,80 23,73 5,-4 9,-17 9,-29 0,-34 27,-95 34,-76 31,91 50,196 48,258 l -2,32 h -85 -85 v -29 c 0,-38 -40,-67 -69,-49 -18,11 -57,67 -49,72 1,1 33,17 70,35 64,32 72,34 139,27 l 71,-6 -7,42 c -8,48 -60,175 -82,199 -14,17 -85,39 -120,39 -10,-1 -33,-7 -52,-16 z m 77,-92 c 15,-12 25,-33 29,-59 l 5,-40 -61,-15 c -33,-9 -61,-13 -61,-11 0,13 43,73 51,73 6,0 3,10 -5,22 -11,16 -13,25 -4,35 14,17 18,16 46,-5 z"
         inkscape:connector-curvature="0"
         style="fill:#d40000;fill-opacity:1" />
      <path
         id="path3735"
         d="m 3612,699 c -35,-11 -60,-24 -57,-30 4,-5 7,-108 9,-229 1,-203 8,-267 23,-212 8,32 21,27 25,-10 4,-32 4,-32 14,-9 9,20 12,13 25,-55 l 15,-79 18,35 c 14,27 20,76 27,225 6,105 7,199 5,211 -3,11 0,53 8,92 18,93 7,99 -112,61 z"
         inkscape:connector-curvature="0"
         style="fill:#d40000;fill-opacity:1" />
    </g>
    <g
       id="g4673"
       transform="matrix(0.02254785,-0.00155515,-0.00155515,-0.02254785,38.671584,70.030808)"
       style="fill:#ffd600;stroke:none;fill-opacity:1"
       inkscape:export-xdpi="96"
       inkscape:export-ydpi="96">
      <path
         id="path4645"
         d="m 1998,456 c -26,-7 -55,-19 -64,-27 -34,-28 -52,-87 -50,-169 1,-72 4,-82 32,-117 40,-49 89,-66 177,-60 112,7 157,57 164,181 8,124 -43,188 -157,200 -32,3 -74,0 -102,-8 z m 94,-93 c 2,-43 2,-117 0,-166 -3,-78 -5,-87 -23,-87 -17,0 -19,8 -20,93 -2,201 2,237 26,237 11,0 15,-19 17,-77 z"
         inkscape:connector-curvature="0"
         style="fill:#ffd600;fill-opacity:1" />
      <path
         id="path4647"
         d="m 4568,456 c -26,-7 -55,-19 -64,-27 -34,-28 -52,-87 -50,-169 1,-72 4,-82 32,-117 40,-49 89,-66 177,-60 112,7 157,57 164,181 8,124 -43,188 -157,200 -32,3 -74,0 -102,-8 z m 94,-93 c 2,-43 2,-117 0,-166 -3,-78 -5,-87 -23,-87 -17,0 -19,8 -20,93 -2,201 2,237 26,237 11,0 15,-19 17,-77 z"
         inkscape:connector-curvature="0"
         style="fill:#ffd600;fill-opacity:1" />
      <path
         id="path4649"
         d="m 87,454 c -10,-11 3,-24 24,-24 18,0 19,-8 19,-160 0,-157 0,-160 -21,-157 -12,1 -24,-4 -26,-10 -4,-10 45,-13 221,-13 144,0 226,4 226,10 0,6 -9,10 -20,10 -19,0 -20,7 -20,160 0,153 1,160 20,160 11,0 20,7 20,15 0,13 -31,15 -218,15 -120,0 -222,-3 -225,-6 z m 243,-94 c 0,-63 -2,-70 -20,-70 -18,0 -20,7 -20,70 0,63 2,70 20,70 18,0 20,-7 20,-70 z m 0,-171 c 0,-70 -2,-80 -16,-75 -9,3 -18,6 -20,6 -2,0 -4,34 -4,75 0,68 2,75 20,75 18,0 20,-7 20,-81 z"
         inkscape:connector-curvature="0"
         style="fill:#ffd600;fill-opacity:1" />
      <path
         id="path4651"
         d="m 749,433 c -5,-16 -12,-35 -15,-43 -47,-124 -72,-200 -65,-200 5,0 11,9 14,20 4,17 14,20 60,20 h 55 l 15,-42 c 8,-24 18,-51 22,-61 6,-14 3,-17 -15,-15 -13,2 -25,-3 -27,-9 -4,-10 27,-13 131,-13 75,0 136,3 136,8 0,4 -10,12 -21,17 -16,7 -40,55 -88,177 l -66,168 h -63 c -59,0 -63,-1 -73,-27 z m 30,-165 c 1,-14 -7,-18 -39,-18 -22,0 -40,2 -40,4 0,2 6,19 14,37 7,19 16,43 21,54 6,18 9,15 25,-20 10,-22 19,-48 19,-57 z m 124,32 c -3,-11 -12,-20 -19,-20 -12,0 -12,4 -2,20 7,11 16,20 19,20 4,0 5,-9 2,-20 z"
         inkscape:connector-curvature="0"
         style="fill:#ffd600;fill-opacity:1" />
      <path
         id="path4653"
         d="m 1072,448 c 3,-7 14,-14 27,-16 21,-3 21,-5 19,-160 -3,-154 -3,-157 -25,-160 -13,-2 -23,-8 -23,-13 0,-5 81,-9 195,-9 h 195 v 105 c 0,105 -12,137 -25,68 -14,-77 -68,-140 -128,-150 l -37,-6 v 162 c 0,154 1,161 20,161 11,0 20,7 20,15 0,13 -20,15 -121,15 -92,0 -120,-3 -117,-12 z"
         inkscape:connector-curvature="0"
         style="fill:#ffd600;fill-opacity:1" />
      <path
         id="path4655"
         d="m 1472,448 c 3,-7 14,-14 27,-16 21,-3 21,-5 19,-160 -3,-154 -3,-157 -25,-160 -13,-2 -23,-8 -23,-13 0,-5 81,-9 195,-9 h 195 v 105 c 0,105 -12,137 -25,68 -14,-77 -68,-140 -128,-150 l -37,-6 v 162 c 0,154 1,161 20,161 11,0 20,7 20,15 0,13 -20,15 -121,15 -92,0 -120,-3 -117,-12 z"
         inkscape:connector-curvature="0"
         style="fill:#ffd600;fill-opacity:1" />
      <path
         id="path4657"
         d="m 2277,454 c -10,-10 2,-24 21,-24 13,0 27,-34 61,-153 25,-83 48,-160 53,-170 8,-15 20,-17 71,-15 l 61,3 23,79 c 12,43 24,80 26,82 1,2 14,-35 27,-82 l 24,-85 60,3 61,3 38,130 c 48,164 61,193 92,205 46,17 27,30 -45,30 -70,0 -87,-10 -51,-30 31,-16 33,-44 10,-131 l -23,-82 -14,44 c -8,24 -20,47 -26,51 -6,4 -8,10 -4,13 3,3 0,28 -7,55 -14,53 -12,60 17,60 11,0 16,5 13,10 -7,11 -477,14 -488,4 z m 286,-84 c 20,-71 21,-81 5,-132 l -12,-40 -33,114 c -18,62 -33,114 -33,116 0,1 13,2 28,2 26,0 30,-5 45,-60 z"
         inkscape:connector-curvature="0"
         style="fill:#ffd600;fill-opacity:1" />
      <path
         id="path4659"
         d="m 2942,448 c 3,-7 13,-13 24,-13 18,0 19,-9 19,-160 0,-160 0,-160 -22,-158 -15,2 -23,-3 -23,-12 0,-12 19,-15 108,-15 h 107 l -3,90 c -3,64 -1,90 8,90 19,0 41,-28 61,-78 l 18,-47 v 135 c 0,129 -1,133 -15,96 -16,-44 -29,-63 -56,-77 -17,-9 -18,-4 -18,61 v 70 h 41 c 35,0 47,-6 75,-35 18,-20 38,-54 44,-75 6,-22 13,-40 15,-40 3,0 5,40 5,89 v 89 l -196,1 c -154,1 -195,-1 -192,-11 z"
         inkscape:connector-curvature="0"
         style="fill:#ffd600;fill-opacity:1" />
      <path
         id="path4661"
         d="m 3362,448 c 3,-7 13,-13 24,-13 18,0 19,-9 19,-160 0,-160 0,-160 -22,-158 -15,2 -23,-3 -23,-12 0,-12 19,-15 108,-15 h 107 l -3,90 c -3,64 -1,90 8,90 19,0 41,-28 61,-78 l 18,-47 v 135 c 0,129 -1,133 -15,96 -16,-44 -29,-63 -56,-77 -17,-9 -18,-4 -18,61 v 70 h 41 c 35,0 47,-6 75,-35 18,-20 38,-54 44,-75 6,-22 13,-40 15,-40 3,0 5,40 5,89 v 89 l -196,1 c -154,1 -195,-1 -192,-11 z"
         inkscape:connector-curvature="0"
         style="fill:#ffd600;fill-opacity:1" />
      <path
         id="path4663"
         d="m 3780,451 c 0,-5 10,-11 23,-13 22,-3 22,-5 22,-147 V 148 l -28,-22 c -15,-12 -27,-25 -27,-29 0,-4 27,-7 60,-7 58,0 75,10 46,27 -28,17 -36,53 -36,175 l 1,123 37,-78 c 20,-44 40,-75 45,-71 4,4 7,-4 8,-17 0,-13 14,-53 32,-89 l 32,-65 h 80 80 l 3,157 c 2,156 3,158 27,174 14,9 25,20 25,25 0,12 -117,11 -125,-1 -3,-5 -1,-10 4,-10 6,0 20,-9 31,-20 17,-17 20,-33 20,-118 l -1,-97 -61,128 -61,127 h -119 c -66,0 -118,-4 -118,-9 z"
         inkscape:connector-curvature="0"
         style="fill:#ffd600;fill-opacity:1" />
      <path
         id="path4665"
         d="m 4850,451 c 0,-5 10,-11 23,-13 22,-3 22,-5 22,-147 V 148 l -28,-22 c -15,-12 -27,-25 -27,-29 0,-4 27,-7 60,-7 58,0 75,10 46,27 -28,17 -36,53 -36,175 l 1,123 37,-78 c 20,-44 40,-75 45,-71 4,4 7,-4 8,-17 0,-13 14,-53 32,-89 l 32,-65 h 80 80 l 3,157 c 2,156 3,158 27,174 14,9 25,20 25,25 0,12 -117,11 -125,-1 -3,-5 -1,-10 4,-10 6,0 20,-9 31,-20 17,-17 20,-33 20,-118 l -1,-97 -61,128 -61,127 h -119 c -66,0 -118,-4 -118,-9 z"
         inkscape:connector-curvature="0"
         style="fill:#ffd600;fill-opacity:1" />
      <path
         id="path4667"
         d="m 3311,230 c -16,-55 -56,-98 -102,-110 -63,-17 -45,-30 41,-30 h 80 v 90 c 0,50 -2,90 -3,90 -2,0 -9,-18 -16,-40 z"
         inkscape:connector-curvature="0"
         style="fill:#ffd600;fill-opacity:1" />
      <path
         id="path4669"
         d="m 3731,230 c -16,-55 -56,-98 -102,-110 -63,-17 -45,-30 41,-30 h 80 v 90 c 0,50 -2,90 -3,90 -2,0 -9,-18 -16,-40 z"
         inkscape:connector-curvature="0"
         style="fill:#ffd600;fill-opacity:1" />
      <path
         id="path4671"
         d="m 640,160 c -6,-12 -27,-28 -46,-36 -55,-23 -40,-34 46,-34 82,0 95,6 60,28 -11,7 -20,18 -20,26 0,7 -6,19 -14,25 -12,10 -17,8 -26,-9 z"
         inkscape:connector-curvature="0"
         style="fill:#ffd600;fill-opacity:1" />
    </g>
  </g>
</svg>
