<?xml version="1.0" standalone="no"?>
<!DOCTYPE svg PUBLIC "-//W3C//DTD SVG 20010904//EN"
 "http://www.w3.org/TR/2001/REC-SVG-20010904/DTD/svg10.dtd">
<svg version="1.0" xmlns="http://www.w3.org/2000/svg"
 width="533.000000pt" height="53.000000pt" viewBox="0 0 533.000000 53.000000"
 preserveAspectRatio="xMidYMid meet">

<g transform="translate(0.000000,53.000000) scale(0.100000,-0.100000)"
fill="#000000" stroke="none">
<path d="M1998 456 c-26 -7 -55 -19 -64 -27 -34 -28 -52 -87 -50 -169 1 -72 4
-82 32 -117 40 -49 89 -66 177 -60 112 7 157 57 164 181 8 124 -43 188 -157
200 -32 3 -74 0 -102 -8z m94 -93 c2 -43 2 -117 0 -166 -3 -78 -5 -87 -23 -87
-17 0 -19 8 -20 93 -2 201 2 237 26 237 11 0 15 -19 17 -77z"/>
<path d="M4568 456 c-26 -7 -55 -19 -64 -27 -34 -28 -52 -87 -50 -169 1 -72 4
-82 32 -117 40 -49 89 -66 177 -60 112 7 157 57 164 181 8 124 -43 188 -157
200 -32 3 -74 0 -102 -8z m94 -93 c2 -43 2 -117 0 -166 -3 -78 -5 -87 -23 -87
-17 0 -19 8 -20 93 -2 201 2 237 26 237 11 0 15 -19 17 -77z"/>
<path d="M87 454 c-10 -11 3 -24 24 -24 18 0 19 -8 19 -160 0 -157 0 -160 -21
-157 -12 1 -24 -4 -26 -10 -4 -10 45 -13 221 -13 144 0 226 4 226 10 0 6 -9
10 -20 10 -19 0 -20 7 -20 160 0 153 1 160 20 160 11 0 20 7 20 15 0 13 -31
15 -218 15 -120 0 -222 -3 -225 -6z m243 -94 c0 -63 -2 -70 -20 -70 -18 0 -20
7 -20 70 0 63 2 70 20 70 18 0 20 -7 20 -70z m0 -171 c0 -70 -2 -80 -16 -75
-9 3 -18 6 -20 6 -2 0 -4 34 -4 75 0 68 2 75 20 75 18 0 20 -7 20 -81z"/>
<path d="M749 433 c-5 -16 -12 -35 -15 -43 -47 -124 -72 -200 -65 -200 5 0 11
9 14 20 4 17 14 20 60 20 l55 0 15 -42 c8 -24 18 -51 22 -61 6 -14 3 -17 -15
-15 -13 2 -25 -3 -27 -9 -4 -10 27 -13 131 -13 75 0 136 3 136 8 0 4 -10 12
-21 17 -16 7 -40 55 -88 177 l-66 168 -63 0 c-59 0 -63 -1 -73 -27z m30 -165
c1 -14 -7 -18 -39 -18 -22 0 -40 2 -40 4 0 2 6 19 14 37 7 19 16 43 21 54 6
18 9 15 25 -20 10 -22 19 -48 19 -57z m124 32 c-3 -11 -12 -20 -19 -20 -12 0
-12 4 -2 20 7 11 16 20 19 20 4 0 5 -9 2 -20z"/>
<path d="M1072 448 c3 -7 14 -14 27 -16 21 -3 21 -5 19 -160 -3 -154 -3 -157
-25 -160 -13 -2 -23 -8 -23 -13 0 -5 81 -9 195 -9 l195 0 0 105 c0 105 -12
137 -25 68 -14 -77 -68 -140 -128 -150 l-37 -6 0 162 c0 154 1 161 20 161 11
0 20 7 20 15 0 13 -20 15 -121 15 -92 0 -120 -3 -117 -12z"/>
<path d="M1472 448 c3 -7 14 -14 27 -16 21 -3 21 -5 19 -160 -3 -154 -3 -157
-25 -160 -13 -2 -23 -8 -23 -13 0 -5 81 -9 195 -9 l195 0 0 105 c0 105 -12
137 -25 68 -14 -77 -68 -140 -128 -150 l-37 -6 0 162 c0 154 1 161 20 161 11
0 20 7 20 15 0 13 -20 15 -121 15 -92 0 -120 -3 -117 -12z"/>
<path d="M2277 454 c-10 -10 2 -24 21 -24 13 0 27 -34 61 -153 25 -83 48 -160
53 -170 8 -15 20 -17 71 -15 l61 3 23 79 c12 43 24 80 26 82 1 2 14 -35 27
-82 l24 -85 60 3 61 3 38 130 c48 164 61 193 92 205 46 17 27 30 -45 30 -70 0
-87 -10 -51 -30 31 -16 33 -44 10 -131 l-23 -82 -14 44 c-8 24 -20 47 -26 51
-6 4 -8 10 -4 13 3 3 0 28 -7 55 -14 53 -12 60 17 60 11 0 16 5 13 10 -7 11
-477 14 -488 4z m286 -84 c20 -71 21 -81 5 -132 l-12 -40 -33 114 c-18 62 -33
114 -33 116 0 1 13 2 28 2 26 0 30 -5 45 -60z"/>
<path d="M2942 448 c3 -7 13 -13 24 -13 18 0 19 -9 19 -160 0 -160 0 -160 -22
-158 -15 2 -23 -3 -23 -12 0 -12 19 -15 108 -15 l107 0 -3 90 c-3 64 -1 90 8
90 19 0 41 -28 61 -78 l18 -47 0 135 c0 129 -1 133 -15 96 -16 -44 -29 -63
-56 -77 -17 -9 -18 -4 -18 61 l0 70 41 0 c35 0 47 -6 75 -35 18 -20 38 -54 44
-75 6 -22 13 -40 15 -40 3 0 5 40 5 89 l0 89 -196 1 c-154 1 -195 -1 -192 -11z"/>
<path d="M3362 448 c3 -7 13 -13 24 -13 18 0 19 -9 19 -160 0 -160 0 -160 -22
-158 -15 2 -23 -3 -23 -12 0 -12 19 -15 108 -15 l107 0 -3 90 c-3 64 -1 90 8
90 19 0 41 -28 61 -78 l18 -47 0 135 c0 129 -1 133 -15 96 -16 -44 -29 -63
-56 -77 -17 -9 -18 -4 -18 61 l0 70 41 0 c35 0 47 -6 75 -35 18 -20 38 -54 44
-75 6 -22 13 -40 15 -40 3 0 5 40 5 89 l0 89 -196 1 c-154 1 -195 -1 -192 -11z"/>
<path d="M3780 451 c0 -5 10 -11 23 -13 22 -3 22 -5 22 -147 l0 -143 -28 -22
c-15 -12 -27 -25 -27 -29 0 -4 27 -7 60 -7 58 0 75 10 46 27 -28 17 -36 53
-36 175 l1 123 37 -78 c20 -44 40 -75 45 -71 4 4 7 -4 8 -17 0 -13 14 -53 32
-89 l32 -65 80 0 80 0 3 157 c2 156 3 158 27 174 14 9 25 20 25 25 0 12 -117
11 -125 -1 -3 -5 -1 -10 4 -10 6 0 20 -9 31 -20 17 -17 20 -33 20 -118 l-1
-97 -61 128 -61 127 -119 0 c-66 0 -118 -4 -118 -9z"/>
<path d="M4850 451 c0 -5 10 -11 23 -13 22 -3 22 -5 22 -147 l0 -143 -28 -22
c-15 -12 -27 -25 -27 -29 0 -4 27 -7 60 -7 58 0 75 10 46 27 -28 17 -36 53
-36 175 l1 123 37 -78 c20 -44 40 -75 45 -71 4 4 7 -4 8 -17 0 -13 14 -53 32
-89 l32 -65 80 0 80 0 3 157 c2 156 3 158 27 174 14 9 25 20 25 25 0 12 -117
11 -125 -1 -3 -5 -1 -10 4 -10 6 0 20 -9 31 -20 17 -17 20 -33 20 -118 l-1
-97 -61 128 -61 127 -119 0 c-66 0 -118 -4 -118 -9z"/>
<path d="M3311 230 c-16 -55 -56 -98 -102 -110 -63 -17 -45 -30 41 -30 l80 0
0 90 c0 50 -2 90 -3 90 -2 0 -9 -18 -16 -40z"/>
<path d="M3731 230 c-16 -55 -56 -98 -102 -110 -63 -17 -45 -30 41 -30 l80 0
0 90 c0 50 -2 90 -3 90 -2 0 -9 -18 -16 -40z"/>
<path d="M640 160 c-6 -12 -27 -28 -46 -36 -55 -23 -40 -34 46 -34 82 0 95 6
60 28 -11 7 -20 18 -20 26 0 7 -6 19 -14 25 -12 10 -17 8 -26 -9z"/>
</g>
</svg>
